<svg width="49" height="10" viewBox="0 0 49 10" fill="none" xmlns="http://www.w3.org/2000/svg">
<g clip-path="url(#clip0_1_6)">
<path d="M0.325806 2.17084L2.26294 0.233704H0.325806V2.17084Z" fill="#5279F0"/>
<path d="M8.42225 9.49602C7.55781 9.49602 6.83031 9.19931 6.24263 8.60304C5.65207 8.00965 5.35822 7.2964 5.35822 6.46622C5.35822 5.63601 5.6378 4.91422 6.19981 4.32366C6.759 3.73312 7.48079 3.43927 8.36233 3.43927C9.24389 3.43927 9.9771 3.73598 10.5106 4.33222C11.0441 4.92564 11.3123 5.59036 11.3123 6.32643C11.3123 6.47193 11.3037 6.61743 11.2866 6.76293H6.33392C6.41094 7.3278 6.65344 7.77569 7.06425 8.1038C7.47508 8.43188 7.92868 8.59733 8.4251 8.59733C8.81881 8.59733 9.18683 8.50318 9.52918 8.31489C9.87153 8.1266 10.1368 7.86983 10.3251 7.54461L11.0555 8.01819C10.7902 8.47181 10.425 8.83126 9.95997 9.0966C9.49495 9.36191 8.98141 9.49317 8.42795 9.49317L8.42225 9.49602ZM6.36815 5.92986H10.2938C10.2595 5.51049 10.0598 5.13959 9.69749 4.81437C9.33518 4.48914 8.88726 4.32651 8.35662 4.32651C7.826 4.32651 7.39804 4.47487 7.04715 4.77443C6.69623 5.07399 6.47086 5.45914 6.36815 5.92986Z" fill="#5279F0"/>
<path d="M19.5057 9.49714H18.6071V0.233704H19.5057V4.29911C19.6598 4.06803 19.8937 3.86832 20.2047 3.69716C20.5157 3.52597 20.8837 3.44039 21.3002 3.44039C21.9849 3.44039 22.5355 3.65719 22.9549 4.09369C23.3743 4.53019 23.5825 5.07796 23.5825 5.73698V9.49714H22.6839V5.93098C22.6839 5.44313 22.5441 5.05227 22.2616 4.75842C21.9792 4.46459 21.6083 4.31624 21.1462 4.31624C20.684 4.31624 20.2732 4.48169 19.965 4.80977C19.6569 5.13785 19.5029 5.57435 19.5029 6.11071V9.49714H19.5057Z" fill="#5279F0"/>
<path d="M27.9166 3.44039C28.7725 3.44039 29.4943 3.72853 30.0848 4.30767C30.6754 4.88397 30.9692 5.60861 30.9692 6.48158C30.9692 7.35458 30.6754 8.06495 30.0848 8.63556C29.4943 9.20899 28.7725 9.49428 27.9166 9.49428C27.0607 9.49428 26.3903 9.18615 25.8254 8.56993V9.49428H24.9268V0.233704H25.8254V4.37613C26.3817 3.75134 27.0779 3.44039 27.9166 3.44039ZM26.4274 7.99364C26.8296 8.39591 27.3261 8.59559 27.9166 8.59559C28.5072 8.59559 29.0036 8.39591 29.4058 7.99935C29.8081 7.60278 30.0078 7.09498 30.0078 6.47872C30.0078 5.8625 29.8081 5.35184 29.4058 4.94671C29.0036 4.54161 28.5072 4.33619 27.9166 4.33619C27.3261 4.33619 26.8296 4.53876 26.4274 4.94671C26.0251 5.35184 25.8254 5.8625 25.8254 6.47872C25.8254 7.09498 26.0251 7.59137 26.4274 7.99364Z" fill="#5279F0"/>
<path d="M36.182 8.75139C35.7538 9.24781 35.1435 9.49602 34.3474 9.49602C33.5513 9.49602 32.9411 9.25067 32.5128 8.7571C32.0851 8.2664 31.8711 7.64446 31.8711 6.8913V3.43927H32.7698V6.8913C32.7698 7.43051 32.9125 7.85273 33.2006 8.16083C33.4858 8.46896 33.8708 8.62302 34.3474 8.62302C34.824 8.62302 35.2091 8.46896 35.4942 8.16083C35.7797 7.85273 35.925 7.43051 35.925 6.8913V3.43927H36.8237V6.8913C36.8237 7.64446 36.6099 8.26354 36.182 8.75139Z" fill="#5279F0"/>
<path d="M40.0439 9.49714H39.9667C39.3591 9.49714 38.8855 9.32594 38.549 8.98359C38.2123 8.64124 38.041 8.14485 38.041 7.49437V0.233704H38.9396V7.49437C38.9396 7.85385 39.0366 8.13057 39.228 8.32743C39.4191 8.52428 39.6929 8.62128 40.0439 8.62128V9.49714Z" fill="#5279F0"/>
<path d="M42.8772 9.49714H42.8004C42.1924 9.49714 41.7191 9.32594 41.3823 8.98359C41.0456 8.64124 40.8746 8.14485 40.8746 7.49437V0.233704H41.7733V7.49437C41.7733 7.85385 41.8703 8.13057 42.0613 8.32743C42.2524 8.52428 42.5262 8.62128 42.8772 8.62128V9.49714Z" fill="#5279F0"/>
<path d="M3.15918 4.33795H4.96792V3.445H3.15918V2.16974H2.26051V2.74032C2.26051 2.74032 2.26051 2.76314 2.26051 2.7717C2.26051 2.78312 2.26051 2.79453 2.26051 2.80308C2.26051 3.14543 1.98948 3.42501 1.64998 3.43643C1.6186 3.43929 1.58722 3.445 1.55584 3.445H1.22205V4.33795H2.26051V7.43053C2.26051 8.1152 2.45165 8.62875 2.83109 8.97678C3.21053 9.32199 3.70978 9.49604 4.32603 9.49604H4.96792V8.66298H4.39163C4.04071 8.66298 3.74689 8.56312 3.51292 8.36056C3.27899 8.16085 3.15918 7.8499 3.15918 7.43053V4.33795Z" fill="#5279F0"/>
<path d="M16.8623 7.51894C16.6826 7.85273 16.4258 8.11518 16.092 8.30633C15.7582 8.49747 15.3959 8.59447 15.0022 8.59447C14.4116 8.59447 13.9152 8.3948 13.513 7.99252C13.1107 7.59025 12.911 7.08244 12.911 6.46622C12.911 5.84999 13.1107 5.34216 13.513 4.93991C13.9152 4.53764 14.4116 4.33793 15.0022 4.33793C15.3959 4.33793 15.7582 4.43493 16.092 4.62608C16.4258 4.81722 16.6826 5.0797 16.8623 5.41349L17.5356 4.7402C17.2817 4.36077 16.9536 4.05835 16.5485 3.83012C16.0834 3.5705 15.5671 3.43927 15.0022 3.43927C14.1463 3.43927 13.4245 3.72456 12.834 4.298C12.2434 4.87143 11.9496 5.59322 11.9496 6.46622C11.9496 7.33922 12.2434 8.06098 12.834 8.63444C13.4245 9.20788 14.1463 9.49317 15.0022 9.49317C15.5671 9.49317 16.0806 9.36191 16.5485 9.10231C16.9536 8.87409 17.2845 8.57167 17.5384 8.19223L16.8651 7.51894H16.8623Z" fill="#5279F0"/>
<path d="M45.8227 5.98122C45.412 5.90417 45.1012 5.79864 44.8929 5.6617C44.6846 5.52474 44.5789 5.31935 44.5789 5.04545C44.5789 4.82293 44.6703 4.63749 44.8556 4.48629C45.0382 4.33793 45.2864 4.26091 45.5946 4.26091C45.86 4.26091 46.1023 4.33508 46.3193 4.47772C46.5361 4.62322 46.6843 4.82864 46.7615 5.09395C46.7729 5.1453 46.7813 5.18809 46.7872 5.23374L47.4603 4.56045C47.3121 4.21812 47.0811 3.94993 46.767 3.75308C46.4277 3.54483 46.0368 3.43927 45.5946 3.43927C44.9954 3.43927 44.5218 3.59904 44.1711 3.91285C43.8201 4.22951 43.6462 4.60895 43.6462 5.05401C43.6462 5.9698 44.2538 6.5518 45.4691 6.80001C45.897 6.88559 46.2165 7.00257 46.4306 7.15375C46.6444 7.3021 46.7502 7.51038 46.7502 7.77569C46.7502 8.04102 46.6444 8.2493 46.4361 8.39762C46.2279 8.54883 45.9284 8.62302 45.5433 8.62302C45.2692 8.62302 45.0097 8.54312 44.7673 8.38623C44.5334 8.23502 44.3537 8.03817 44.2282 7.79852L43.566 8.46039C44.0254 9.15081 44.6846 9.49885 45.5433 9.49885C46.2279 9.49885 46.7557 9.33339 47.1265 8.9996C47.4976 8.66581 47.6858 8.26068 47.6858 7.78139C47.6858 6.82282 47.0668 6.22372 45.8256 5.98407L45.8227 5.98122Z" fill="#5279F0"/>
<path d="M0.325806 2.17084L2.26294 0.233704H0.325806V2.17084Z" stroke="#5279F0" stroke-width="0.162207"/>
<path d="M8.42225 9.49602C7.55781 9.49602 6.83031 9.19931 6.24263 8.60304C5.65207 8.00965 5.35822 7.2964 5.35822 6.46622C5.35822 5.63601 5.6378 4.91422 6.19981 4.32366C6.759 3.73312 7.48079 3.43927 8.36233 3.43927C9.24389 3.43927 9.9771 3.73598 10.5106 4.33222C11.0441 4.92564 11.3123 5.59036 11.3123 6.32643C11.3123 6.47193 11.3037 6.61743 11.2866 6.76293H6.33392C6.41094 7.3278 6.65344 7.77569 7.06425 8.1038C7.47508 8.43188 7.92868 8.59733 8.4251 8.59733C8.81881 8.59733 9.18683 8.50318 9.52918 8.31489C9.87153 8.1266 10.1368 7.86983 10.3251 7.54461L11.0555 8.01819C10.7902 8.47181 10.425 8.83126 9.95997 9.0966C9.49495 9.36191 8.98141 9.49317 8.42795 9.49317L8.42225 9.49602ZM6.36815 5.92986H10.2938C10.2595 5.51049 10.0598 5.13959 9.69749 4.81437C9.33518 4.48914 8.88726 4.32651 8.35662 4.32651C7.826 4.32651 7.39804 4.47487 7.04715 4.77443C6.69623 5.07399 6.47086 5.45914 6.36815 5.92986Z" stroke="#5279F0" stroke-width="0.162207"/>
<path d="M19.5057 9.49714H18.6071V0.233704H19.5057V4.29911C19.6598 4.06803 19.8937 3.86832 20.2047 3.69716C20.5157 3.52597 20.8837 3.44039 21.3002 3.44039C21.9849 3.44039 22.5355 3.65719 22.9549 4.09369C23.3743 4.53019 23.5825 5.07796 23.5825 5.73698V9.49714H22.6839V5.93098C22.6839 5.44313 22.5441 5.05227 22.2616 4.75842C21.9792 4.46459 21.6083 4.31624 21.1462 4.31624C20.684 4.31624 20.2732 4.48169 19.965 4.80977C19.6569 5.13785 19.5029 5.57435 19.5029 6.11071V9.49714H19.5057Z" stroke="#5279F0" stroke-width="0.162207"/>
<path d="M27.9166 3.44039C28.7725 3.44039 29.4943 3.72853 30.0848 4.30768C30.6754 4.88396 30.9692 5.60861 30.9692 6.48158C30.9692 7.35458 30.6754 8.06495 30.0848 8.63556C29.4943 9.20899 28.7725 9.49428 27.9166 9.49428C27.0607 9.49428 26.3903 9.18615 25.8254 8.56993V9.49428H24.9268V0.233704H25.8254V4.37613C26.3817 3.75134 27.0779 3.44039 27.9166 3.44039ZM26.4274 7.99364C26.8296 8.39591 27.3261 8.59559 27.9166 8.59559C28.5072 8.59559 29.0036 8.39591 29.4058 7.99935C29.8081 7.60278 30.0078 7.09498 30.0078 6.47872C30.0078 5.8625 29.8081 5.35184 29.4058 4.94671C29.0036 4.54161 28.5072 4.33619 27.9166 4.33619C27.3261 4.33619 26.8296 4.53876 26.4274 4.94671C26.0251 5.35184 25.8254 5.8625 25.8254 6.47872C25.8254 7.09498 26.0251 7.59137 26.4274 7.99364Z" stroke="#5279F0" stroke-width="0.162207"/>
<path d="M36.182 8.75139C35.7538 9.24781 35.1435 9.49602 34.3474 9.49602C33.5513 9.49602 32.9411 9.25067 32.5128 8.7571C32.0851 8.26639 31.8711 7.64446 31.8711 6.8913V3.43927H32.7698V6.8913C32.7698 7.43051 32.9125 7.85273 33.2006 8.16083C33.4858 8.46896 33.8708 8.62302 34.3474 8.62302C34.824 8.62302 35.2091 8.46896 35.4942 8.16083C35.7797 7.85273 35.925 7.43051 35.925 6.8913V3.43927H36.8237V6.8913C36.8237 7.64446 36.6099 8.26354 36.182 8.75139Z" stroke="#5279F0" stroke-width="0.162207"/>
<path d="M40.0439 9.49714H39.9667C39.3591 9.49714 38.8855 9.32594 38.549 8.98359C38.2123 8.64124 38.041 8.14485 38.041 7.49437V0.233704H38.9396V7.49437C38.9396 7.85385 39.0366 8.13057 39.228 8.32743C39.4191 8.52428 39.6929 8.62128 40.0439 8.62128V9.49714Z" stroke="#5279F0" stroke-width="0.162207"/>
<path d="M42.8772 9.49714H42.8004C42.1924 9.49714 41.7191 9.32594 41.3823 8.98359C41.0456 8.64124 40.8746 8.14485 40.8746 7.49437V0.233704H41.7733V7.49437C41.7733 7.85385 41.8703 8.13057 42.0613 8.32743C42.2524 8.52428 42.5262 8.62128 42.8772 8.62128V9.49714Z" stroke="#5279F0" stroke-width="0.162207"/>
<path d="M3.15918 4.33795H4.96792V3.445H3.15918V2.16974H2.26051V2.74032C2.26051 2.74032 2.26051 2.76314 2.26051 2.7717C2.26051 2.78312 2.26051 2.79453 2.26051 2.80308C2.26051 3.14543 1.98948 3.42501 1.64998 3.43643C1.6186 3.43929 1.58722 3.445 1.55584 3.445H1.22205V4.33795H2.26051V7.43053C2.26051 8.1152 2.45165 8.62875 2.83109 8.97678C3.21053 9.32199 3.70978 9.49604 4.32603 9.49604H4.96792V8.66298H4.39163C4.04071 8.66298 3.74689 8.56312 3.51292 8.36056C3.27899 8.16085 3.15918 7.8499 3.15918 7.43053V4.33795Z" stroke="#5279F0" stroke-width="0.162207"/>
<path d="M16.8623 7.51894C16.6826 7.85273 16.4258 8.11518 16.092 8.30633C15.7582 8.49747 15.3959 8.59447 15.0022 8.59447C14.4116 8.59447 13.9152 8.3948 13.513 7.99252C13.1107 7.59025 12.911 7.08244 12.911 6.46622C12.911 5.84999 13.1107 5.34216 13.513 4.93991C13.9152 4.53764 14.4116 4.33793 15.0022 4.33793C15.3959 4.33793 15.7582 4.43493 16.092 4.62608C16.4258 4.81722 16.6826 5.0797 16.8623 5.41349L17.5356 4.7402C17.2817 4.36077 16.9536 4.05835 16.5485 3.83012C16.0834 3.5705 15.5671 3.43927 15.0022 3.43927C14.1463 3.43927 13.4245 3.72456 12.834 4.298C12.2434 4.87143 11.9496 5.59322 11.9496 6.46622C11.9496 7.33922 12.2434 8.06097 12.834 8.63444C13.4245 9.20788 14.1463 9.49317 15.0022 9.49317C15.5671 9.49317 16.0806 9.36191 16.5485 9.10231C16.9536 8.87409 17.2845 8.57167 17.5384 8.19223L16.8651 7.51894H16.8623Z" stroke="#5279F0" stroke-width="0.162207"/>
<path d="M45.8227 5.98122C45.412 5.90417 45.1012 5.79864 44.8929 5.6617C44.6846 5.52474 44.5789 5.31935 44.5789 5.04545C44.5789 4.82293 44.6703 4.63749 44.8556 4.48629C45.0382 4.33793 45.2864 4.26091 45.5946 4.26091C45.86 4.26091 46.1023 4.33508 46.3193 4.47772C46.5361 4.62322 46.6843 4.82864 46.7615 5.09395C46.7729 5.1453 46.7813 5.18809 46.7872 5.23374L47.4603 4.56045C47.3121 4.21812 47.0811 3.94993 46.767 3.75308C46.4277 3.54483 46.0368 3.43927 45.5946 3.43927C44.9954 3.43927 44.5218 3.59904 44.1711 3.91285C43.8201 4.22951 43.6462 4.60895 43.6462 5.05401C43.6462 5.9698 44.2538 6.5518 45.4691 6.80001C45.897 6.88559 46.2165 7.00257 46.4306 7.15375C46.6444 7.3021 46.7502 7.51038 46.7502 7.77569C46.7502 8.04102 46.6444 8.2493 46.4361 8.39762C46.2279 8.54883 45.9284 8.62302 45.5433 8.62302C45.2692 8.62302 45.0097 8.54312 44.7673 8.38623C44.5334 8.23502 44.3537 8.03817 44.2282 7.79852L43.566 8.46039C44.0254 9.15081 44.6846 9.49885 45.5433 9.49885C46.2279 9.49885 46.7557 9.33339 47.1265 8.9996C47.4976 8.66581 47.6858 8.26068 47.6858 7.78139C47.6858 6.82282 47.0668 6.22372 45.8256 5.98407L45.8227 5.98122Z" stroke="#5279F0" stroke-width="0.162207"/>
</g>
<defs>
<clipPath id="clip0_1_6">
<rect width="48.0133" height="9.73243" fill="white"/>
</clipPath>
</defs>
</svg>
